<svg width="48" height="48" viewBox="0 0 48 48" fill="none" xmlns="http://www.w3.org/2000/svg">
<g clip-path="url(#clip0_1772_1949)">
<path d="M41.4545 0H6.54545C2.9305 0 0 2.9305 0 6.54545V41.4545C0 45.0695 2.9305 48 6.54545 48H41.4545C45.0695 48 48 45.0695 48 41.4545V6.54545C48 2.9305 45.0695 0 41.4545 0Z" fill="#0077B5"/>
<path d="M17.2912 13.0909C17.2912 13.9 17.0513 14.6909 16.6018 15.3637C16.1522 16.0364 15.5133 16.5608 14.7658 16.8704C14.0183 17.18 13.1957 17.2611 12.4022 17.1032C11.6086 16.9454 10.8797 16.5557 10.3076 15.9836C9.73545 15.4115 9.34583 14.6826 9.18798 13.889C9.03013 13.0954 9.11115 12.2729 9.42078 11.5254C9.73041 10.7779 10.2548 10.139 10.9275 9.68944C11.6002 9.23993 12.3912 9 13.2003 9C14.2853 9 15.3258 9.43101 16.093 10.1982C16.8602 10.9654 17.2912 12.0059 17.2912 13.0909Z" fill="white"/>
<path d="M16.3636 19.9091V37.9827C16.3643 38.116 16.3387 38.2482 16.2881 38.3716C16.2376 38.495 16.1632 38.6072 16.0692 38.7017C15.9751 38.7962 15.8633 38.8713 15.7402 38.9224C15.6171 38.9736 15.4851 39 15.3518 39H11.0399C10.9066 39.0003 10.7745 38.9743 10.6513 38.9235C10.528 38.8726 10.416 38.7979 10.3217 38.7036C10.2275 38.6094 10.1527 38.4974 10.1019 38.3741C10.051 38.2509 10.025 38.1188 10.0254 37.9854V19.9091C10.0254 19.64 10.1323 19.3819 10.3225 19.1917C10.5128 19.0014 10.7709 18.8945 11.0399 18.8945H15.3518C15.6204 18.8953 15.8777 19.0025 16.0674 19.1926C16.2571 19.3828 16.3636 19.6405 16.3636 19.9091Z" fill="white"/>
<path d="M38.9025 29.3184V38.0675C38.9028 38.19 38.8789 38.3115 38.8322 38.4248C38.7854 38.5381 38.7168 38.6411 38.6301 38.7278C38.5434 38.8145 38.4404 38.8832 38.3271 38.9299C38.2138 38.9767 38.0923 39.0005 37.9697 39.0002H33.3334C33.2108 39.0005 33.0893 38.9767 32.976 38.9299C32.8627 38.8832 32.7597 38.8145 32.673 38.7278C32.5863 38.6411 32.5177 38.5381 32.4709 38.4248C32.4242 38.3115 32.4003 38.19 32.4006 38.0675V29.5884C32.4006 28.3229 32.7715 24.0465 29.0925 24.0465C26.2425 24.0465 25.6615 26.9729 25.547 28.2875V38.0675C25.547 38.3125 25.4506 38.5477 25.2787 38.7222C25.1067 38.8968 24.8729 38.9966 24.6279 39.0002H20.1497C20.0274 39.0002 19.9062 38.976 19.7932 38.9291C19.6802 38.8822 19.5775 38.8135 19.4912 38.7268C19.4048 38.6402 19.3363 38.5373 19.2897 38.4242C19.2432 38.311 19.2194 38.1898 19.2197 38.0675V19.8302C19.2194 19.7078 19.2432 19.5866 19.2897 19.4734C19.3363 19.3603 19.4048 19.2575 19.4912 19.1708C19.5775 19.0842 19.6802 19.0154 19.7932 18.9685C19.9062 18.9216 20.0274 18.8975 20.1497 18.8975H24.6279C24.8753 18.8975 25.1125 18.9957 25.2875 19.1706C25.4624 19.3456 25.5606 19.5828 25.5606 19.8302V21.4065C26.6188 19.8193 28.187 18.5947 31.5334 18.5947C38.9461 18.5947 38.9025 25.5165 38.9025 29.3184Z" fill="white"/>
</g>
<defs>
<clipPath id="clip0_1772_1949">
<rect width="48" height="48" fill="white"/>
</clipPath>
</defs>
</svg>
