<svg width="48" height="48" viewBox="0 0 48 48" fill="none" xmlns="http://www.w3.org/2000/svg">
<g id="fi_15707820" clip-path="url(#clip0_1772_1983)">
<g id="Group">
<path id="Vector" d="M24 48C10.7472 48 0 37.2528 0 24C0 10.7472 10.7472 0 24 0C37.2528 0 48 10.7472 48 24C48 37.2528 37.2528 48 24 48Z" fill="#25D366"/>
<g id="Group_2">
<g id="WA_Logo">
<g id="Group_3">
<path id="Vector_2" fill-rule="evenodd" clip-rule="evenodd" d="M35.2274 12.8254C32.2514 9.84464 28.2866 8.20304 24.0674 8.19824C15.3746 8.19824 8.29464 15.2734 8.29464 23.971C8.29464 26.7502 9.01944 29.467 10.4018 31.8574L8.16504 40.0318L16.5266 37.8382C18.8306 39.0958 21.4226 39.7582 24.0626 39.7582H24.0674C32.7602 39.7582 39.8354 32.683 39.8402 23.9854C39.845 19.771 38.2082 15.8062 35.2274 12.8254ZM24.0722 37.0942H24.0674C21.7154 37.0942 19.4066 36.4606 17.3954 35.2654L16.9154 34.9822L11.9522 36.283L13.277 31.4446L12.965 30.9502C11.6546 28.8622 10.9586 26.4526 10.9586 23.971C10.9634 16.7422 16.8434 10.8622 24.077 10.8622C27.581 10.8622 30.869 12.2302 33.3458 14.707C35.8226 17.1838 37.1858 20.4814 37.181 23.9806C37.181 31.2142 31.2962 37.0942 24.0722 37.0942ZM31.2626 27.2734C30.869 27.0766 28.9298 26.1214 28.5698 25.9918C28.2098 25.8622 27.9458 25.795 27.6818 26.1886C27.4178 26.5822 26.6642 27.4702 26.4338 27.7342C26.2034 27.9982 25.973 28.0318 25.5794 27.835C25.1858 27.6382 23.9138 27.2206 22.4114 25.8766C21.2402 24.8302 20.4482 23.539 20.2178 23.1454C19.9874 22.7518 20.1938 22.5358 20.3906 22.339C20.5682 22.1614 20.7842 21.8782 20.981 21.6478C21.1778 21.4174 21.245 21.2542 21.3746 20.9902C21.5042 20.7262 21.4418 20.4958 21.341 20.299C21.2402 20.1022 20.453 18.163 20.1266 17.371C19.805 16.603 19.4834 16.7086 19.2386 16.6942C19.0082 16.6846 18.7442 16.6798 18.485 16.6798C18.221 16.6798 17.7938 16.7806 17.4338 17.1742C17.0738 17.5678 16.0562 18.523 16.0562 20.4622C16.0562 22.4014 17.4674 24.2782 17.6642 24.5374C17.861 24.8014 20.4434 28.7806 24.3986 30.4894C25.3394 30.8974 26.0738 31.1374 26.645 31.3198C27.5906 31.6222 28.4498 31.579 29.1266 31.4782C29.885 31.363 31.4594 30.523 31.7858 29.6062C32.1122 28.6846 32.1122 27.8974 32.0162 27.7342C31.9202 27.571 31.6562 27.475 31.2626 27.2734Z" fill="white"/>
</g>
</g>
</g>
</g>
</g>
<defs>
<clipPath id="clip0_1772_1983">
<rect width="48" height="48" fill="white"/>
</clipPath>
</defs>
</svg>
